<svg xmlns="http://www.w3.org/2000/svg" width="512" height="512" viewBox="0 0 512 512">
    <rect width="512" height="512" fill="#3B82F6" rx="128"/>
    <g transform="translate(96, 96)">
        <path d="M160 20c33.28 0 60.29 27.01 60.29 60.29v30.14h-40.19v-30.14c0-11.09-9-20.1-20.1-20.1s-20.1 9-20.1 20.1v150.71c0 11.09 9 20.1 20.1 20.1s20.1-9 20.1-20.1v-30.14h40.19v30.14c0 33.28-27.01 60.29-60.29 60.29s-60.29-27.01-60.29-60.29V80.29C99.71 47.01 126.72 20 160 20z" fill="white"/>
        <path d="M280 80.29c0-33.28 27.01-60.29 60.29-60.29s60.29 27.01 60.29 60.29v150.71c0 33.28-27.01 60.29-60.29 60.29S280 264.28 280 231V80.29zm40.19 0v150.71c0 11.09 9 20.1 20.1 20.1s20.1-9 20.1-20.1V80.29c0-11.09-9-20.1-20.1-20.1s-20.1 9-20.1 20.1z" fill="white"/>
        <path d="M20 80.29C20 47.01 47.01 20 80.29 20h30.14v40.19H80.29c-11.09 0-20.1 9-20.1 20.1v150.71c0 11.09 9 20.1 20.1 20.1h30.14v40.19H80.29C47.01 291.29 20 264.28 20 231V80.29z" fill="white"/>
    </g>
</svg>
